<svg width="89" height="41" viewBox="0 0 89 41" fill="none" xmlns="http://www.w3.org/2000/svg">
<path d="M23.3669 9.68753H16.5029C16.4542 9.11959 16.3244 8.60438 16.1134 8.14191C15.9106 7.67944 15.6266 7.28188 15.2615 6.94922C14.9045 6.60845 14.4704 6.34882 13.9593 6.17032C13.4481 5.98371 12.868 5.89041 12.2189 5.89041C11.0831 5.89041 10.1216 6.16627 9.33459 6.71799C8.5557 7.26971 7.96341 8.06077 7.55774 9.09119C7.16017 10.1216 6.96139 11.3589 6.96139 12.8031C6.96139 14.3285 7.16423 15.6063 7.56991 16.6368C7.98369 17.6591 8.58004 18.4298 9.35894 18.9491C10.1378 19.4603 11.0749 19.7158 12.1703 19.7158C12.795 19.7158 13.3548 19.6388 13.8498 19.4846C14.3447 19.3223 14.7747 19.0911 15.1398 18.7909C15.5049 18.4907 15.8011 18.1296 16.0282 17.7077C16.2635 17.2777 16.4217 16.795 16.5029 16.2595L23.3669 16.3082C23.2858 17.3629 22.9896 18.438 22.4785 19.5333C21.9673 20.6205 21.2412 21.6266 20.3 22.5515C19.3669 23.4683 18.2108 24.2067 16.8315 24.7665C15.4522 25.3263 13.8498 25.6062 12.0242 25.6062C9.73621 25.6062 7.68349 25.1154 5.86607 24.1336C4.05676 23.1519 2.62472 21.7077 1.56996 19.801C0.523321 17.8944 0 15.5617 0 12.8031C0 10.0283 0.535492 7.69161 1.60647 5.79305C2.67746 3.88637 4.12166 2.44622 5.93909 1.4726C7.75652 0.490867 9.78489 0 12.0242 0C13.5982 0 15.0465 0.215008 16.369 0.645023C17.6915 1.07504 18.8517 1.70384 19.8497 2.53141C20.8477 3.35088 21.6509 4.36101 22.2594 5.56181C22.8679 6.76261 23.2371 8.13785 23.3669 9.68753Z" fill="white"/>
<path d="M26.4369 0.340768H34.8587L40.6517 14.4583H40.9438L46.7369 0.340768H55.1587V25.2655H48.5381V10.8559H48.3433L42.7937 25.0707H38.8018L33.2522 10.7585H33.0575V25.2655H26.4369V0.340768Z" fill="#00D749"/>
<path d="M71.8015 8.12974C71.7366 7.31839 71.4324 6.68553 70.8887 6.23118C70.3533 5.77682 69.5379 5.54964 68.4425 5.54964C67.7448 5.54964 67.1728 5.63483 66.7265 5.80522C66.2884 5.96749 65.9638 6.19061 65.7529 6.47458C65.5419 6.75855 65.4324 7.0831 65.4243 7.4482C65.4081 7.7484 65.4608 8.02021 65.5825 8.26361C65.7123 8.4989 65.9152 8.71391 66.191 8.90864C66.4669 9.09525 66.8198 9.26563 67.2498 9.41979C67.6799 9.57394 68.191 9.71187 68.7833 9.83358L70.8279 10.2717C72.2072 10.5638 73.3877 10.9492 74.3694 11.4279C75.3512 11.9066 76.1544 12.4705 76.7792 13.1195C77.4039 13.7605 77.8623 14.4826 78.1544 15.2859C78.4546 16.0891 78.6088 16.9654 78.6169 17.9146C78.6088 19.5536 78.199 20.941 77.3877 22.0769C76.5763 23.2128 75.4161 24.0768 73.907 24.6691C72.406 25.2614 70.6007 25.5576 68.4912 25.5576C66.3249 25.5576 64.4345 25.2371 62.8199 24.5961C61.2134 23.9551 59.9639 22.9694 59.0714 21.6387C58.1871 20.3 57.7408 18.5881 57.7327 16.5029H64.1586C64.1992 17.2656 64.3898 17.9065 64.7306 18.4258C65.0714 18.945 65.5501 19.3386 66.1667 19.6063C66.7914 19.874 67.5338 20.0079 68.3938 20.0079C69.116 20.0079 69.7204 19.9187 70.2072 19.7402C70.694 19.5617 71.0632 19.3142 71.3147 18.9978C71.5662 18.6814 71.696 18.3203 71.7042 17.9146C71.696 17.5333 71.5703 17.2006 71.3269 16.9167C71.0916 16.6246 70.7021 16.365 70.1585 16.1378C69.6149 15.9025 68.8807 15.6834 67.9557 15.4806L65.473 14.9451C63.2661 14.4664 61.5258 13.6672 60.2519 12.5475C58.9862 11.4198 58.3574 9.88226 58.3655 7.93501C58.3574 6.35288 58.7793 4.96953 59.6313 3.78495C60.4913 2.59227 61.6799 1.66327 63.1971 0.997962C64.7225 0.332654 66.4709 0 68.4425 0C70.4547 0 72.195 0.336711 73.6636 1.01013C75.1321 1.68355 76.2639 2.63283 77.0591 3.85798C77.8623 5.075 78.268 6.49892 78.2761 8.12974H71.8015Z" fill="white"/>
<path d="M84.9393 25.6549C83.9982 25.6549 83.1909 25.3263 82.5174 24.6691C81.8521 24.0038 81.5235 23.1965 81.5316 22.2472C81.5235 21.3223 81.8521 20.5312 82.5174 19.874C83.1909 19.2169 83.9982 18.8883 84.9393 18.8883C85.8318 18.8883 86.6188 19.2169 87.3004 19.874C87.99 20.5312 88.3389 21.3223 88.347 22.2472C88.3389 22.8801 88.1726 23.4562 87.848 23.9754C87.5316 24.4866 87.1178 24.8963 86.6067 25.2046C86.0955 25.5048 85.5397 25.6549 84.9393 25.6549Z" fill="#00D749"/>
<path d="M56.2491 36.6543H53.4337V28.3461H56.3059C57.1308 28.3461 57.8394 28.5124 58.4316 28.845C59.0266 29.175 59.4837 29.6496 59.8028 30.269C60.122 30.8883 60.2815 31.6293 60.2815 32.4921C60.2815 33.3575 60.1206 34.1012 59.7988 34.7233C59.4796 35.3453 59.0185 35.8227 58.4154 36.1553C57.815 36.488 57.0929 36.6543 56.2491 36.6543ZM54.9388 35.3521H56.1761C56.7548 35.3521 57.2376 35.2466 57.6243 35.0357C58.0111 34.822 58.3018 34.5042 58.4965 34.0823C58.6913 33.6577 58.7886 33.1276 58.7886 32.4921C58.7886 31.8565 58.6913 31.3291 58.4965 30.9099C58.3018 30.488 58.0138 30.173 57.6325 29.9647C57.2538 29.7538 56.7832 29.6483 56.2207 29.6483H54.9388V35.3521ZM64.3646 36.776C63.7561 36.776 63.2288 36.6421 62.7825 36.3744C62.3363 36.1066 61.9901 35.7321 61.744 35.2507C61.5006 34.7693 61.3789 34.2067 61.3789 33.563C61.3789 32.9194 61.5006 32.3555 61.744 31.8714C61.9901 31.3873 62.3363 31.0113 62.7825 30.7436C63.2288 30.4759 63.7561 30.342 64.3646 30.342C64.9732 30.342 65.5005 30.4759 65.9468 30.7436C66.393 31.0113 66.7378 31.3873 66.9812 31.8714C67.2274 32.3555 67.3504 32.9194 67.3504 33.563C67.3504 34.2067 67.2274 34.7693 66.9812 35.2507C66.7378 35.7321 66.393 36.1066 65.9468 36.3744C65.5005 36.6421 64.9732 36.776 64.3646 36.776ZM64.3728 35.5995C64.7027 35.5995 64.9786 35.5089 65.2003 35.3277C65.4221 35.1438 65.5871 34.8977 65.6953 34.5894C65.8061 34.2811 65.8616 33.9376 65.8616 33.559C65.8616 33.1777 65.8061 32.8328 65.6953 32.5245C65.5871 32.2135 65.4221 31.966 65.2003 31.7821C64.9786 31.5982 64.7027 31.5063 64.3728 31.5063C64.0347 31.5063 63.7534 31.5982 63.529 31.7821C63.3072 31.966 63.1409 32.2135 63.03 32.5245C62.9218 32.8328 62.8677 33.1777 62.8677 33.559C62.8677 33.9376 62.9218 34.2811 63.03 34.5894C63.1409 34.8977 63.3072 35.1438 63.529 35.3277C63.7534 35.5089 64.0347 35.5995 64.3728 35.5995ZM70.0654 33.0032V36.6543H68.5969V30.4231H70.0005V31.4819H70.0735C70.2169 31.1331 70.4454 30.8558 70.7591 30.6503C71.0755 30.4448 71.4663 30.342 71.9315 30.342C72.3615 30.342 72.7361 30.4339 73.0552 30.6178C73.3771 30.8018 73.6259 31.0681 73.8017 31.417C73.9802 31.7659 74.0681 32.1892 74.0654 32.6868V36.6543H72.5968V32.914C72.5968 32.4975 72.4886 32.1716 72.2723 31.9363C72.0586 31.701 71.7625 31.5834 71.3838 31.5834C71.1269 31.5834 70.8984 31.6401 70.6983 31.7537C70.5008 31.8646 70.3453 32.0255 70.2317 32.2365C70.1208 32.4474 70.0654 32.703 70.0654 33.0032ZM78.3168 36.776C77.6921 36.776 77.1525 36.6462 76.6982 36.3866C76.2465 36.1242 75.899 35.7537 75.6556 35.275C75.4122 34.7936 75.2905 34.227 75.2905 33.5752C75.2905 32.9343 75.4122 32.3717 75.6556 31.8876C75.9017 31.4008 76.2452 31.0222 76.686 30.7517C77.1269 30.4786 77.6448 30.342 78.2398 30.342C78.6238 30.342 78.9862 30.4042 79.327 30.5286C79.6704 30.6503 79.9733 30.8396 80.2357 31.0965C80.5007 31.3535 80.709 31.6807 80.8604 32.0783C81.0119 32.4731 81.0876 32.9437 81.0876 33.49V33.9403H75.9801V32.9505H79.6799C79.6772 32.6692 79.6164 32.419 79.4974 32.2C79.3784 31.9782 79.212 31.8038 78.9984 31.6767C78.7874 31.5495 78.5413 31.486 78.26 31.486C77.9598 31.486 77.6962 31.559 77.469 31.7051C77.2418 31.8484 77.0647 32.0377 76.9375 32.273C76.8131 32.5056 76.7496 32.7612 76.7469 33.0397V33.9038C76.7469 34.2662 76.8131 34.5772 76.9457 34.8369C77.0782 35.0938 77.2634 35.2912 77.5014 35.4292C77.7394 35.5644 78.018 35.632 78.3371 35.632C78.5508 35.632 78.7442 35.6022 78.9172 35.5427C79.0903 35.4805 79.2404 35.3899 79.3675 35.2709C79.4946 35.1519 79.5907 35.0045 79.6556 34.8288L81.0268 34.9829C80.9402 35.3453 80.7752 35.6617 80.5318 35.9322C80.2911 36.1999 79.9828 36.4082 79.6069 36.5569C79.231 36.703 78.8009 36.776 78.3168 36.776ZM85.0886 36.776C84.4638 36.776 83.9243 36.6462 83.4699 36.3866C83.0183 36.1242 82.6708 35.7537 82.4273 35.275C82.1839 34.7936 82.0622 34.227 82.0622 33.5752C82.0622 32.9343 82.1839 32.3717 82.4273 31.8876C82.6735 31.4008 83.0169 31.0222 83.4578 30.7517C83.8986 30.4786 84.4165 30.342 85.0115 30.342C85.3955 30.342 85.7579 30.4042 86.0987 30.5286C86.4422 30.6503 86.7451 30.8396 87.0074 31.0965C87.2725 31.3535 87.4807 31.6807 87.6322 32.0783C87.7836 32.4731 87.8593 32.9437 87.8593 33.49V33.9403H82.7519V32.9505H86.4516C86.4489 32.6692 86.3881 32.419 86.2691 32.2C86.1501 31.9782 85.9838 31.8038 85.7701 31.6767C85.5592 31.5495 85.3131 31.486 85.0318 31.486C84.7316 31.486 84.4679 31.559 84.2407 31.7051C84.0135 31.8484 83.8364 32.0377 83.7093 32.273C83.5849 32.5056 83.5213 32.7612 83.5186 33.0397V33.9038C83.5186 34.2662 83.5849 34.5772 83.7174 34.8369C83.8499 35.0938 84.0352 35.2912 84.2732 35.4292C84.5112 35.5644 84.7897 35.632 85.1089 35.632C85.3225 35.632 85.5159 35.6022 85.689 35.5427C85.8621 35.4805 86.0122 35.3899 86.1393 35.2709C86.2664 35.1519 86.3624 35.0045 86.4273 34.8288L87.7985 34.9829C87.7119 35.3453 87.547 35.6617 87.3036 35.9322C87.0629 36.1999 86.7546 36.4082 86.3786 36.5569C86.0027 36.703 85.5727 36.776 85.0886 36.776Z" fill="#D1D1D1"/>
</svg>
