<svg width="17" height="16" viewBox="0 0 17 16" fill="none" xmlns="http://www.w3.org/2000/svg">
<g clip-path="url(#clip0_515_5701)">
<path d="M7.5 14C7.5 14 6.5 14 6.5 13C6.5 12 7.5 9 11.5 9C15.5 9 16.5 12 16.5 13C16.5 14 15.5 14 15.5 14H7.5ZM11.5 8C12.2956 8 13.0587 7.68393 13.6213 7.12132C14.1839 6.55871 14.5 5.79565 14.5 5C14.5 4.20435 14.1839 3.44129 13.6213 2.87868C13.0587 2.31607 12.2956 2 11.5 2C10.7044 2 9.94129 2.31607 9.37868 2.87868C8.81607 3.44129 8.5 4.20435 8.5 5C8.5 5.79565 8.81607 6.55871 9.37868 7.12132C9.94129 7.68393 10.7044 8 11.5 8Z" fill="#A6A6A6"/>
<path fill-rule="evenodd" clip-rule="evenodd" d="M5.716 14C5.56776 13.6878 5.49382 13.3455 5.5 13C5.5 11.645 6.18 10.25 7.436 9.28C6.80909 9.08684 6.15595 8.99237 5.5 9C1.5 9 0.5 12 0.5 13C0.5 14 1.5 14 1.5 14H5.716Z" fill="#A6A6A6"/>
<path d="M5 8C5.66304 8 6.29893 7.73661 6.76777 7.26777C7.23661 6.79893 7.5 6.16304 7.5 5.5C7.5 4.83696 7.23661 4.20107 6.76777 3.73223C6.29893 3.26339 5.66304 3 5 3C4.33696 3 3.70107 3.26339 3.23223 3.73223C2.76339 4.20107 2.5 4.83696 2.5 5.5C2.5 6.16304 2.76339 6.79893 3.23223 7.26777C3.70107 7.73661 4.33696 8 5 8Z" fill="#A6A6A6"/>
</g>
<defs>
<clipPath id="clip0_515_5701">
<rect width="16" height="16" fill="white" transform="translate(0.5)"/>
</clipPath>
</defs>
</svg>
