<svg width="97" height="45" viewBox="0 0 97 45" fill="none" xmlns="http://www.w3.org/2000/svg">
<g filter="url(#filter0_d_499_7948)">
<path d="M27.6931 9.68753H20.8291C20.7804 9.11959 20.6506 8.60438 20.4396 8.14191C20.2368 7.67944 19.9528 7.28188 19.5877 6.94922C19.2307 6.60845 18.7966 6.34882 18.2855 6.17032C17.7743 5.98371 17.1942 5.89041 16.5451 5.89041C15.4092 5.89041 14.4478 6.16627 13.6608 6.71799C12.8819 7.26971 12.2896 8.06077 11.8839 9.09119C11.4863 10.1216 11.2876 11.3589 11.2876 12.8031C11.2876 14.3285 11.4904 15.6063 11.8961 16.6368C12.3099 17.6591 12.9062 18.4298 13.6851 18.9491C14.464 19.4603 15.4011 19.7158 16.4964 19.7158C17.1212 19.7158 17.681 19.6388 18.1759 19.4846C18.6709 19.3223 19.1009 19.0911 19.466 18.7909C19.8311 18.4907 20.1272 18.1296 20.3544 17.7077C20.5897 17.2777 20.7479 16.795 20.8291 16.2595L27.6931 16.3082C27.6119 17.3629 27.3158 18.438 26.8047 19.5333C26.2935 20.6205 25.5673 21.6266 24.6262 22.5515C23.6931 23.4683 22.5369 24.2067 21.1576 24.7665C19.7784 25.3263 18.1759 25.6062 16.3504 25.6062C14.0624 25.6062 12.0097 25.1154 10.1922 24.1336C8.38293 23.1519 6.95089 21.7077 5.89614 19.801C4.84949 17.8944 4.32617 15.5617 4.32617 12.8031C4.32617 10.0283 4.86166 7.69161 5.93265 5.79305C7.00363 3.88637 8.44784 2.44622 10.2653 1.4726C12.0827 0.490867 14.1111 0 16.3504 0C17.9244 0 19.3727 0.215008 20.6952 0.645023C22.0177 1.07504 23.1779 1.70384 24.1759 2.53141C25.1738 3.35088 25.9771 4.36101 26.5856 5.56181C27.1941 6.76261 27.5633 8.13785 27.6931 9.68753Z" fill="white"/>
<path d="M30.763 0.340768H39.1849L44.9779 14.4583H45.27L51.063 0.340768H59.4849V25.2655H52.8642V10.8559H52.6695L47.1199 25.0707H43.128L37.5784 10.7585H37.3837V25.2655H30.763V0.340768Z" fill="#00D749"/>
<path d="M76.1277 8.12974C76.0628 7.31839 75.7585 6.68553 75.2149 6.23118C74.6794 5.77682 73.864 5.54964 72.7687 5.54964C72.0709 5.54964 71.4989 5.63483 71.0527 5.80522C70.6146 5.96749 70.29 6.19061 70.0791 6.47458C69.8681 6.75855 69.7586 7.0831 69.7505 7.4482C69.7342 7.7484 69.787 8.02021 69.9087 8.26361C70.0385 8.4989 70.2413 8.71391 70.5172 8.90864C70.7931 9.09525 71.146 9.26563 71.576 9.41979C72.006 9.57394 72.5172 9.71187 73.1095 9.83358L75.1541 10.2717C76.5334 10.5638 77.7139 10.9492 78.6956 11.4279C79.6774 11.9066 80.4806 12.4705 81.1053 13.1195C81.7301 13.7605 82.1885 14.4826 82.4806 15.2859C82.7808 16.0891 82.9349 16.9654 82.943 17.9146C82.9349 19.5536 82.5252 20.941 81.7138 22.0769C80.9025 23.2128 79.7423 24.0768 78.2331 24.6691C76.7321 25.2614 74.9269 25.5576 72.8174 25.5576C70.6511 25.5576 68.7606 25.2371 67.146 24.5961C65.5396 23.9551 64.2901 22.9694 63.3976 21.6387C62.5132 20.3 62.067 18.5881 62.0589 16.5029H68.4848C68.5253 17.2656 68.716 17.9065 69.0568 18.4258C69.3975 18.945 69.8762 19.3386 70.4929 19.6063C71.1176 19.874 71.86 20.0079 72.72 20.0079C73.4421 20.0079 74.0466 19.9187 74.5334 19.7402C75.0202 19.5617 75.3894 19.3142 75.6409 18.9978C75.8924 18.6814 76.0222 18.3203 76.0303 17.9146C76.0222 17.5333 75.8965 17.2006 75.6531 16.9167C75.4178 16.6246 75.0283 16.365 74.4847 16.1378C73.9411 15.9025 73.2068 15.6834 72.2819 15.4806L69.7992 14.9451C67.5923 14.4664 65.8519 13.6672 64.5781 12.5475C63.3124 11.4198 62.6836 9.88226 62.6917 7.93501C62.6836 6.35288 63.1055 4.96953 63.9574 3.78495C64.8175 2.59227 66.0061 1.66327 67.5233 0.997962C69.0487 0.332654 70.7971 0 72.7687 0C74.7809 0 76.5212 0.336711 77.9897 1.01013C79.4583 1.68355 80.5901 2.63283 81.3852 3.85798C82.1885 5.075 82.5942 6.49892 82.6023 8.12974H76.1277Z" fill="white"/>
<path d="M89.2655 25.6549C88.3243 25.6549 87.517 25.3263 86.8436 24.6691C86.1783 24.0038 85.8497 23.1965 85.8578 22.2472C85.8497 21.3223 86.1783 20.5312 86.8436 19.874C87.517 19.2169 88.3243 18.8883 89.2655 18.8883C90.158 18.8883 90.945 19.2169 91.6265 19.874C92.3162 20.5312 92.6651 21.3223 92.6732 22.2472C92.6651 22.8801 92.4987 23.4562 92.1742 23.9754C91.8578 24.4866 91.444 24.8963 90.9328 25.2046C90.4217 25.5048 89.8659 25.6549 89.2655 25.6549Z" fill="#00D749"/>
<path d="M59.0946 36.6553H57.4881L60.413 28.347H62.271L65.2 36.6553H63.5935L61.3745 30.0509H61.3095L59.0946 36.6553ZM59.1473 33.3977H63.5286V34.6066H59.1473V33.3977ZM68.3521 36.7648C67.8626 36.7648 67.4244 36.639 67.0377 36.3875C66.6509 36.136 66.3453 35.7709 66.1209 35.2922C65.8964 34.8135 65.7841 34.232 65.7841 33.5478C65.7841 32.8554 65.8977 32.2713 66.1249 31.7953C66.3548 31.3166 66.6645 30.9555 67.0539 30.7121C67.4434 30.466 67.8774 30.343 68.3561 30.343C68.7212 30.343 69.0214 30.4052 69.2567 30.5296C69.492 30.6513 69.6786 30.7987 69.8166 30.9718C69.9545 31.1421 70.0613 31.3031 70.137 31.4545H70.1979V28.347H71.6705V36.6553H70.2263V35.6735H70.137C70.0613 35.825 69.9518 35.9859 69.8085 36.1563C69.6651 36.324 69.4758 36.4673 69.2405 36.5863C69.0052 36.7053 68.7091 36.7648 68.3521 36.7648ZM68.7618 35.5599C69.0728 35.5599 69.3379 35.4761 69.5569 35.3084C69.776 35.138 69.9423 34.9014 70.0559 34.5985C70.1695 34.2956 70.2263 33.9427 70.2263 33.5397C70.2263 33.1367 70.1695 32.7865 70.0559 32.489C69.945 32.1915 69.7801 31.9603 69.561 31.7953C69.3446 31.6303 69.0782 31.5478 68.7618 31.5478C68.4346 31.5478 68.1614 31.633 67.9423 31.8034C67.7233 31.9738 67.5583 32.2091 67.4474 32.5093C67.3365 32.8095 67.2811 33.1529 67.2811 33.5397C67.2811 33.9291 67.3365 34.2767 67.4474 34.5823C67.561 34.8852 67.7273 35.1245 67.9464 35.3003C68.1682 35.4734 68.44 35.5599 68.7618 35.5599ZM73.2354 36.6553V30.4241H74.639V31.4829H74.7121C74.8419 31.1259 75.0569 30.8474 75.3571 30.6472C75.6573 30.4444 76.0156 30.343 76.4321 30.343C76.854 30.343 77.2097 30.4457 77.499 30.6513C77.7911 30.8541 77.9967 31.1313 78.1157 31.4829H78.1806C78.3185 31.1367 78.5511 30.8609 78.8783 30.6553C79.2083 30.4471 79.5991 30.343 80.0507 30.343C80.6241 30.343 81.092 30.5242 81.4544 30.8866C81.8168 31.249 81.998 31.7777 81.998 32.4728V36.6553H80.5254V32.6999C80.5254 32.3132 80.4226 32.0306 80.2171 31.8521C80.0115 31.6709 79.76 31.5803 79.4625 31.5803C79.1082 31.5803 78.831 31.6912 78.6309 31.9129C78.4335 32.132 78.3347 32.4173 78.3347 32.7689V36.6553H76.8946V32.6391C76.8946 32.3172 76.7972 32.0603 76.6025 31.8683C76.4105 31.6763 76.159 31.5803 75.8479 31.5803C75.637 31.5803 75.445 31.6344 75.2719 31.7425C75.0988 31.848 74.9609 31.9981 74.8581 32.1928C74.7553 32.3849 74.7039 32.6093 74.7039 32.8663V36.6553H73.2354ZM83.4878 36.6553V30.4241H84.9564V36.6553H83.4878ZM84.2262 29.5397C83.9936 29.5397 83.7934 29.4626 83.6258 29.3085C83.4581 29.1516 83.3742 28.9637 83.3742 28.7446C83.3742 28.5228 83.4581 28.3349 83.6258 28.1807C83.7934 28.0238 83.9936 27.9454 84.2262 27.9454C84.4615 27.9454 84.6616 28.0238 84.8266 28.1807C84.9942 28.3349 85.0781 28.5228 85.0781 28.7446C85.0781 28.9637 84.9942 29.1516 84.8266 29.3085C84.6616 29.4626 84.4615 29.5397 84.2262 29.5397ZM87.935 33.0042V36.6553H86.4665V30.4241H87.8701V31.4829H87.9432C88.0865 31.134 88.315 30.8568 88.6288 30.6513C88.9452 30.4457 89.336 30.343 89.8012 30.343C90.2312 30.343 90.6057 30.4349 90.9249 30.6188C91.2467 30.8027 91.4955 31.0691 91.6713 31.418C91.8498 31.7669 91.9377 32.1901 91.935 32.6878V36.6553H90.4665V32.9149C90.4665 32.4985 90.3583 32.1726 90.1419 31.9373C89.9283 31.702 89.6321 31.5843 89.2535 31.5843C88.9966 31.5843 88.768 31.6411 88.5679 31.7547C88.3705 31.8656 88.215 32.0265 88.1014 32.2375C87.9905 32.4484 87.935 32.704 87.935 33.0042Z" fill="#D1D1D1"/>
</g>
<defs>
<filter id="filter0_d_499_7948" x="0.326172" y="0" width="96.3472" height="48.6553" filterUnits="userSpaceOnUse" color-interpolation-filters="sRGB">
<feFlood flood-opacity="0" result="BackgroundImageFix"/>
<feColorMatrix in="SourceAlpha" type="matrix" values="0 0 0 0 0 0 0 0 0 0 0 0 0 0 0 0 0 0 127 0" result="hardAlpha"/>
<feOffset dy="4"/>
<feGaussianBlur stdDeviation="2"/>
<feComposite in2="hardAlpha" operator="out"/>
<feColorMatrix type="matrix" values="0 0 0 0 0 0 0 0 0 0 0 0 0 0 0 0 0 0 0.25 0"/>
<feBlend mode="normal" in2="BackgroundImageFix" result="effect1_dropShadow_499_7948"/>
<feBlend mode="normal" in="SourceGraphic" in2="effect1_dropShadow_499_7948" result="shape"/>
</filter>
</defs>
</svg>
