<svg width="44" height="44" viewBox="0 0 44 44" fill="none" xmlns="http://www.w3.org/2000/svg">
<g filter="url(#filter0_d_500_3047)">
<circle cx="21" cy="21" r="18" fill="white"/>
<circle cx="21" cy="21" r="18" fill="#E10000" fill-opacity="0.15"/>
<path d="M27.4924 21.2598L23.7366 24.1206H18.6966V23.1606H22.7941C22.8853 23.1606 22.9748 23.137 23.053 23.0924C23.1312 23.0477 23.1952 22.9837 23.2382 22.9072C23.2812 22.8306 23.3017 22.7444 23.2973 22.6577C23.293 22.571 23.264 22.487 23.2135 22.4147L22.3184 21.136C22.1347 20.8728 21.8856 20.6569 21.5931 20.5077C21.3006 20.3584 20.9739 20.2804 20.6421 20.2806H12.6486C12.3813 20.2806 12.1249 20.3818 11.9359 20.5618C11.7468 20.7418 11.6406 20.986 11.6406 21.2406V27.0006C11.6406 27.5098 11.853 27.9982 12.2311 28.3583C12.6092 28.7183 13.1219 28.9206 13.6566 28.9206H23.3727C23.8038 28.9207 24.2298 28.8331 24.6224 28.6635C25.0149 28.494 25.3649 28.2465 25.6488 27.9376L31.8006 21.2406L30.337 20.776C29.8582 20.624 29.347 20.5886 28.8501 20.6731C28.3532 20.7576 27.8864 20.9593 27.4924 21.2598ZM25.1508 20.2806C25.9529 20.2806 26.722 19.9772 27.2891 19.4371C27.8563 18.897 28.1748 18.1644 28.1748 17.4006C28.1748 14.8009 25.1508 11.6406 25.1508 11.6406C25.1508 11.6406 22.1268 14.7808 22.1268 17.4006C22.1268 18.1644 22.4454 18.897 23.0126 19.4371C23.5797 19.9772 24.3488 20.2806 25.1508 20.2806Z" fill="#E10000"/>
</g>
<defs>
<filter id="filter0_d_500_3047" x="0" y="0" width="44" height="44" filterUnits="userSpaceOnUse" color-interpolation-filters="sRGB">
<feFlood flood-opacity="0" result="BackgroundImageFix"/>
<feColorMatrix in="SourceAlpha" type="matrix" values="0 0 0 0 0 0 0 0 0 0 0 0 0 0 0 0 0 0 127 0" result="hardAlpha"/>
<feOffset dx="1" dy="1"/>
<feGaussianBlur stdDeviation="2"/>
<feComposite in2="hardAlpha" operator="out"/>
<feColorMatrix type="matrix" values="0 0 0 0 0 0 0 0 0 0 0 0 0 0 0 0 0 0 0.09 0"/>
<feBlend mode="normal" in2="BackgroundImageFix" result="effect1_dropShadow_500_3047"/>
<feBlend mode="normal" in="SourceGraphic" in2="effect1_dropShadow_500_3047" result="shape"/>
</filter>
</defs>
</svg>
