<svg width="44" height="44" viewBox="0 0 44 44" fill="none" xmlns="http://www.w3.org/2000/svg">
<g filter="url(#filter0_d_500_3050)">
<circle cx="21" cy="21" r="18" fill="white"/>
<circle cx="21" cy="21" r="18" fill="#00EE43" fill-opacity="0.15"/>
<path d="M30 13H12C11.7348 13 11.4804 13.1054 11.2929 13.2929C11.1054 13.4804 11 13.7348 11 14V28C11 28.2652 11.1054 28.5196 11.2929 28.7071C11.4804 28.8946 11.7348 29 12 29H30C30.2652 29 30.5196 28.8946 30.7071 28.7071C30.8946 28.5196 31 28.2652 31 28V14C31 13.7348 30.8946 13.4804 30.7071 13.2929C30.5196 13.1054 30.2652 13 30 13ZM29 24C28.2044 24 27.4413 24.3161 26.8787 24.8787C26.3161 25.4413 26 26.2044 26 27H16C16 26.2044 15.6839 25.4413 15.1213 24.8787C14.5587 24.3161 13.7956 24 13 24V18C13.7956 18 14.5587 17.6839 15.1213 17.1213C15.6839 16.5587 16 15.7956 16 15H26C26 15.7956 26.3161 16.5587 26.8787 17.1213C27.4413 17.6839 28.2044 18 29 18V24Z" fill="#009432"/>
<path d="M21 17C18.794 17 17 18.794 17 21C17 23.206 18.794 25 21 25C23.206 25 25 23.206 25 21C25 18.794 23.206 17 21 17ZM21 23C19.897 23 19 22.103 19 21C19 19.897 19.897 19 21 19C22.103 19 23 19.897 23 21C23 22.103 22.103 23 21 23Z" fill="#009432"/>
</g>
<defs>
<filter id="filter0_d_500_3050" x="0" y="0" width="44" height="44" filterUnits="userSpaceOnUse" color-interpolation-filters="sRGB">
<feFlood flood-opacity="0" result="BackgroundImageFix"/>
<feColorMatrix in="SourceAlpha" type="matrix" values="0 0 0 0 0 0 0 0 0 0 0 0 0 0 0 0 0 0 127 0" result="hardAlpha"/>
<feOffset dx="1" dy="1"/>
<feGaussianBlur stdDeviation="2"/>
<feComposite in2="hardAlpha" operator="out"/>
<feColorMatrix type="matrix" values="0 0 0 0 0 0 0 0 0 0 0 0 0 0 0 0 0 0 0.09 0"/>
<feBlend mode="normal" in2="BackgroundImageFix" result="effect1_dropShadow_500_3050"/>
<feBlend mode="normal" in="SourceGraphic" in2="effect1_dropShadow_500_3050" result="shape"/>
</filter>
</defs>
</svg>
