<svg width="44" height="44" viewBox="0 0 44 44" fill="none" xmlns="http://www.w3.org/2000/svg">
<g filter="url(#filter0_d_500_3051)">
<circle cx="21" cy="21" r="18" fill="white"/>
<circle cx="21" cy="21" r="18" fill="#0075E1" fill-opacity="0.15"/>
<g clip-path="url(#clip0_500_3051)">
<path d="M27.2563 14.8469C26.9406 16.1125 25.8031 17 24.5 17C23.1969 17 22.0594 16.1125 21.7437 14.8469L21.4688 13.7563C21.3375 13.2219 20.7938 12.8969 20.2563 13.0312C19.7188 13.1656 19.3969 13.7062 19.5312 14.2437L19.8031 15.3344C20.1469 16.7094 21.0594 17.8219 22.25 18.4469V28C22.25 28.5531 22.6969 29 23.25 29C23.8031 29 24.25 28.5531 24.25 28V24H24.75V28C24.75 28.5531 25.1969 29 25.75 29C26.3031 29 26.75 28.5531 26.75 28V18.4469C27.9406 17.8219 28.8531 16.7094 29.1969 15.3344L29.4688 14.2437C29.6031 13.7094 29.2781 13.1656 28.7406 13.0312C28.2031 12.8969 27.6625 13.2219 27.5312 13.7563L27.2594 14.8469H27.2563ZM24.5 16C25.3281 16 26 15.3281 26 14.5C26 13.6719 25.3281 13 24.5 13C23.6719 13 23 13.6719 23 14.5C23 15.3281 23.6719 16 24.5 16ZM14.5 16C15.3281 16 16 15.3281 16 14.5C16 13.6719 15.3281 13 14.5 13C13.6719 13 13 13.6719 13 14.5C13 15.3281 13.6719 16 14.5 16ZM14.25 17C13.1469 17 12.25 17.8969 12.25 19V28C12.25 28.5531 12.6969 29 13.25 29C13.8031 29 14.25 28.5531 14.25 28V24H14.75V28C14.75 28.5531 15.1969 29 15.75 29C16.3031 29 16.75 28.5531 16.75 28V20.8969L17.1562 21.5375C17.3406 21.825 17.6594 22.0031 18 22.0031H19.5C20.0531 22.0031 20.5 21.5563 20.5 21.0031C20.5 20.45 20.0531 20.0031 19.5 20.0031H18.55L17.3812 18.1625C16.925 17.4375 16.1281 17 15.2719 17H14.25Z" fill="#0024E3"/>
</g>
</g>
<defs>
<filter id="filter0_d_500_3051" x="0" y="0" width="44" height="44" filterUnits="userSpaceOnUse" color-interpolation-filters="sRGB">
<feFlood flood-opacity="0" result="BackgroundImageFix"/>
<feColorMatrix in="SourceAlpha" type="matrix" values="0 0 0 0 0 0 0 0 0 0 0 0 0 0 0 0 0 0 127 0" result="hardAlpha"/>
<feOffset dx="1" dy="1"/>
<feGaussianBlur stdDeviation="2"/>
<feComposite in2="hardAlpha" operator="out"/>
<feColorMatrix type="matrix" values="0 0 0 0 0 0 0 0 0 0 0 0 0 0 0 0 0 0 0.09 0"/>
<feBlend mode="normal" in2="BackgroundImageFix" result="effect1_dropShadow_500_3051"/>
<feBlend mode="normal" in="SourceGraphic" in2="effect1_dropShadow_500_3051" result="shape"/>
</filter>
<clipPath id="clip0_500_3051">
<rect width="18" height="16" fill="white" transform="translate(12 13)"/>
</clipPath>
</defs>
</svg>
