<svg width="89" height="41" viewBox="0 0 89 41" fill="none" xmlns="http://www.w3.org/2000/svg">
<path d="M23.3669 9.68753H16.5029C16.4542 9.11959 16.3244 8.60438 16.1134 8.14191C15.9106 7.67944 15.6266 7.28188 15.2615 6.94922C14.9045 6.60845 14.4704 6.34882 13.9593 6.17032C13.4481 5.98371 12.868 5.89041 12.2189 5.89041C11.0831 5.89041 10.1216 6.16627 9.33459 6.71799C8.5557 7.26971 7.96341 8.06077 7.55774 9.09119C7.16017 10.1216 6.96139 11.3589 6.96139 12.8031C6.96139 14.3285 7.16423 15.6063 7.56991 16.6368C7.98369 17.6591 8.58004 18.4298 9.35894 18.9491C10.1378 19.4603 11.0749 19.7158 12.1703 19.7158C12.795 19.7158 13.3548 19.6388 13.8498 19.4846C14.3447 19.3223 14.7747 19.0911 15.1398 18.7909C15.5049 18.4907 15.8011 18.1296 16.0282 17.7077C16.2635 17.2777 16.4217 16.795 16.5029 16.2595L23.3669 16.3082C23.2858 17.3629 22.9896 18.438 22.4785 19.5333C21.9673 20.6205 21.2412 21.6266 20.3 22.5515C19.3669 23.4683 18.2108 24.2067 16.8315 24.7665C15.4522 25.3263 13.8498 25.6062 12.0242 25.6062C9.73621 25.6062 7.68349 25.1154 5.86607 24.1336C4.05676 23.1519 2.62472 21.7077 1.56996 19.801C0.523321 17.8943 0 15.5617 0 12.8031C0 10.0283 0.535492 7.69161 1.60648 5.79305C2.67746 3.88637 4.12166 2.44622 5.93909 1.4726C7.75652 0.490867 9.78489 0 12.0242 0C13.5982 0 15.0465 0.215008 16.369 0.645023C17.6915 1.07504 18.8517 1.70384 19.8497 2.53142C20.8477 3.35088 21.6509 4.36101 22.2594 5.56181C22.8679 6.76261 23.2371 8.13785 23.3669 9.68753Z" fill="white"/>
<path d="M26.4369 0.340768H34.8587L40.6517 14.4583H40.9438L46.7369 0.340768H55.1587V25.2655H48.5381V10.8559H48.3433L42.7937 25.0707H38.8019L33.2522 10.7585H33.0575V25.2655H26.4369V0.340768Z" fill="#00D749"/>
<path d="M71.8015 8.12974C71.7366 7.31839 71.4324 6.68553 70.8888 6.23118C70.3533 5.77682 69.5379 5.54964 68.4425 5.54964C67.7448 5.54964 67.1728 5.63483 66.7265 5.80522C66.2884 5.96749 65.9638 6.19061 65.7529 6.47458C65.5419 6.75855 65.4324 7.0831 65.4243 7.4482C65.4081 7.7484 65.4608 8.02021 65.5825 8.26361C65.7123 8.4989 65.9152 8.71391 66.191 8.90864C66.4669 9.09525 66.8198 9.26563 67.2498 9.41979C67.6799 9.57394 68.191 9.71187 68.7833 9.83358L70.8279 10.2717C72.2072 10.5638 73.3877 10.9492 74.3694 11.4279C75.3512 11.9066 76.1544 12.4705 76.7792 13.1195C77.4039 13.7605 77.8623 14.4826 78.1544 15.2859C78.4546 16.0891 78.6088 16.9654 78.6169 17.9146C78.6088 19.5536 78.199 20.941 77.3877 22.0769C76.5763 23.2128 75.4161 24.0768 73.907 24.6691C72.406 25.2614 70.6007 25.5576 68.4912 25.5576C66.3249 25.5576 64.4345 25.2371 62.8199 24.5961C61.2134 23.9551 59.9639 22.9694 59.0714 21.6387C58.1871 20.3 57.7408 18.5881 57.7327 16.5029H64.1586C64.1992 17.2656 64.3898 17.9065 64.7306 18.4258C65.0714 18.945 65.5501 19.3386 66.1667 19.6063C66.7914 19.874 67.5338 20.0079 68.3938 20.0079C69.1159 20.0079 69.7204 19.9187 70.2072 19.7402C70.694 19.5617 71.0632 19.3142 71.3147 18.9978C71.5662 18.6814 71.696 18.3203 71.7042 17.9146C71.696 17.5333 71.5703 17.2006 71.3269 16.9167C71.0916 16.6246 70.7021 16.365 70.1585 16.1378C69.6149 15.9025 68.8807 15.6834 67.9557 15.4806L65.473 14.9451C63.2661 14.4664 61.5258 13.6672 60.2519 12.5475C58.9862 11.4198 58.3574 9.88226 58.3655 7.93501C58.3574 6.35288 58.7793 4.96953 59.6313 3.78495C60.4913 2.59227 61.6799 1.66327 63.1971 0.997962C64.7225 0.332654 66.4709 0 68.4425 0C70.4547 0 72.195 0.336711 73.6636 1.01013C75.1321 1.68355 76.2639 2.63283 77.0591 3.85798C77.8623 5.075 78.268 6.49892 78.2761 8.12974H71.8015Z" fill="white"/>
<path d="M84.9393 25.6549C83.9982 25.6549 83.1909 25.3263 82.5174 24.6691C81.8521 24.0038 81.5235 23.1965 81.5316 22.2472C81.5235 21.3223 81.8521 20.5312 82.5174 19.874C83.1909 19.2169 83.9982 18.8883 84.9393 18.8883C85.8318 18.8883 86.6188 19.2169 87.3004 19.874C87.99 20.5312 88.3389 21.3223 88.347 22.2472C88.3389 22.8801 88.1726 23.4562 87.848 23.9754C87.5316 24.4866 87.1178 24.8963 86.6066 25.2046C86.0955 25.5048 85.5397 25.6549 84.9393 25.6549Z" fill="#00D749"/>
<path d="M40.2919 28.3461H42.1336L44.6001 34.3663H44.6975L47.164 28.3461H49.0058V36.6543H47.5616V30.9464H47.4845L45.1884 36.63H44.1093L41.8131 30.9343H41.7361V36.6543H40.2919V28.3461ZM52.3729 36.7801C51.978 36.7801 51.6224 36.7097 51.3059 36.5691C50.9922 36.4258 50.7434 36.2148 50.5595 35.9363C50.3783 35.6577 50.2877 35.3142 50.2877 34.9058C50.2877 34.5542 50.3526 34.2635 50.4824 34.0336C50.6122 33.8038 50.7894 33.6198 51.0139 33.4819C51.2383 33.344 51.4912 33.2399 51.7725 33.1695C52.0564 33.0965 52.3499 33.0438 52.6528 33.0113C53.0179 32.9735 53.314 32.9397 53.5412 32.9099C53.7684 32.8775 53.9334 32.8288 54.0361 32.7639C54.1416 32.6963 54.1944 32.5921 54.1944 32.4515V32.4272C54.1944 32.1215 54.1038 31.8849 53.9226 31.7172C53.7414 31.5495 53.4804 31.4657 53.1396 31.4657C52.7799 31.4657 52.4946 31.5441 52.2836 31.701C52.0754 31.8579 51.9347 32.0431 51.8617 32.2568L50.4905 32.062C50.5987 31.6834 50.7772 31.367 51.026 31.1128C51.2748 30.8558 51.5791 30.6638 51.9388 30.5367C52.2985 30.4069 52.6961 30.342 53.1315 30.342C53.4317 30.342 53.7305 30.3771 54.028 30.4475C54.3255 30.5178 54.5973 30.6341 54.8434 30.7963C55.0895 30.9559 55.287 31.1736 55.4357 31.4495C55.5872 31.7253 55.6629 32.0702 55.6629 32.484V36.6543H54.2512V35.7983H54.2025C54.1132 35.9714 53.9875 36.1337 53.8252 36.2851C53.6656 36.4339 53.4641 36.5542 53.2207 36.6462C52.98 36.7354 52.6974 36.7801 52.3729 36.7801ZM52.7542 35.701C53.049 35.701 53.3046 35.6428 53.5209 35.5265C53.7373 35.4075 53.9036 35.2507 54.0199 35.0559C54.1389 34.8612 54.1984 34.6489 54.1984 34.419V33.6848C54.1524 33.7226 54.074 33.7578 53.9631 33.7902C53.8549 33.8227 53.7332 33.8511 53.598 33.8754C53.4628 33.8998 53.3289 33.9214 53.1964 33.9403C53.0639 33.9593 52.9489 33.9755 52.8516 33.989C52.6325 34.0188 52.4364 34.0674 52.2633 34.1351C52.0903 34.2027 51.9537 34.2973 51.8536 34.419C51.7535 34.538 51.7035 34.6922 51.7035 34.8815C51.7035 35.1519 51.8022 35.3561 51.9997 35.4941C52.1971 35.632 52.4486 35.701 52.7542 35.701ZM58.6081 33.0032V36.6543H57.1396V30.4231H58.5432V31.4819H58.6162C58.7596 31.1331 58.9881 30.8558 59.3018 30.6503C59.6182 30.4448 60.009 30.342 60.4742 30.342C60.9042 30.342 61.2788 30.4339 61.5979 30.6178C61.9198 30.8018 62.1686 31.0681 62.3444 31.417C62.5229 31.7659 62.6108 32.1892 62.6081 32.6868V36.6543H61.1395V32.914C61.1395 32.4975 61.0313 32.1716 60.815 31.9363C60.6013 31.701 60.3052 31.5834 59.9266 31.5834C59.6696 31.5834 59.4411 31.6401 59.241 31.7537C59.0435 31.8646 58.888 32.0255 58.7744 32.2365C58.6636 32.4474 58.6081 32.703 58.6081 33.0032ZM65.894 36.7801C65.4992 36.7801 65.1435 36.7097 64.8271 36.5691C64.5134 36.4258 64.2646 36.2148 64.0807 35.9363C63.8995 35.6577 63.8089 35.3142 63.8089 34.9058C63.8089 34.5542 63.8738 34.2635 64.0036 34.0336C64.1334 33.8038 64.3106 33.6198 64.535 33.4819C64.7595 33.344 65.0124 33.2399 65.2936 33.1695C65.5776 33.0965 65.8711 33.0438 66.174 33.0113C66.5391 32.9735 66.8352 32.9397 67.0624 32.9099C67.2896 32.8775 67.4545 32.8288 67.5573 32.7639C67.6628 32.6963 67.7155 32.5921 67.7155 32.4515V32.4272C67.7155 32.1215 67.6249 31.8849 67.4437 31.7172C67.2625 31.5495 67.0015 31.4657 66.6608 31.4657C66.3011 31.4657 66.0157 31.5441 65.8048 31.701C65.5965 31.8579 65.4559 32.0431 65.3829 32.2568L64.0117 32.062C64.1199 31.6834 64.2984 31.367 64.5472 31.1128C64.796 30.8558 65.1003 30.6638 65.46 30.5367C65.8197 30.4069 66.2172 30.342 66.6527 30.342C66.9529 30.342 67.2517 30.3771 67.5492 30.4475C67.8467 30.5178 68.1185 30.6341 68.3646 30.7963C68.6107 30.9559 68.8081 31.1736 68.9569 31.4495C69.1083 31.7253 69.1841 32.0702 69.1841 32.484V36.6543H67.7723V35.7983H67.7236C67.6344 35.9714 67.5086 36.1337 67.3464 36.2851C67.1868 36.4339 66.9853 36.5542 66.7419 36.6462C66.5012 36.7354 66.2186 36.7801 65.894 36.7801ZM66.2754 35.701C66.5702 35.701 66.8257 35.6428 67.0421 35.5265C67.2585 35.4075 67.4248 35.2507 67.5411 35.0559C67.6601 34.8612 67.7196 34.6489 67.7196 34.419V33.6848C67.6736 33.7226 67.5952 33.7578 67.4843 33.7902C67.3761 33.8227 67.2544 33.8511 67.1192 33.8754C66.984 33.8998 66.8501 33.9214 66.7176 33.9403C66.585 33.9593 66.4701 33.9755 66.3727 33.989C66.1537 34.0188 65.9576 34.0674 65.7845 34.1351C65.6114 34.2027 65.4748 34.2973 65.3748 34.419C65.2747 34.538 65.2247 34.6922 65.2247 34.8815C65.2247 35.1519 65.3234 35.3561 65.5208 35.4941C65.7182 35.632 65.9698 35.701 66.2754 35.701ZM73.3706 39.1208C72.8433 39.1208 72.3903 39.0491 72.0116 38.9058C71.633 38.7652 71.3287 38.5758 71.0989 38.3379C70.869 38.0999 70.7094 37.8362 70.6202 37.5468L71.9427 37.2263C72.0022 37.348 72.0887 37.4684 72.2023 37.5874C72.3159 37.7091 72.4687 37.8091 72.6607 37.8876C72.8554 37.9687 73.1002 38.0093 73.395 38.0093C73.8115 38.0093 74.1563 37.9078 74.4295 37.705C74.7026 37.5049 74.8392 37.1749 74.8392 36.7151V35.5346H74.7662C74.6904 35.6861 74.5796 35.8416 74.4335 36.0012C74.2902 36.1607 74.0995 36.2946 73.8615 36.4028C73.6262 36.511 73.3301 36.565 72.9731 36.565C72.4944 36.565 72.0603 36.4528 71.6709 36.2283C71.2841 36.0012 70.9758 35.6631 70.7459 35.2141C70.5187 34.7625 70.4052 34.1973 70.4052 33.5184C70.4052 32.8342 70.5187 32.2568 70.7459 31.7862C70.9758 31.3129 71.2855 30.9546 71.6749 30.7111C72.0644 30.465 72.4984 30.342 72.9771 30.342C73.3422 30.342 73.6424 30.4042 73.8777 30.5286C74.1157 30.6503 74.305 30.7977 74.4457 30.9708C74.5863 31.1412 74.6931 31.3021 74.7662 31.4535H74.8473V30.4231H76.2956V36.7557C76.2956 37.2885 76.1685 37.7293 75.9142 38.0782C75.66 38.4271 75.3125 38.6881 74.8716 38.8612C74.4308 39.0343 73.9305 39.1208 73.3706 39.1208ZM73.3828 35.4129C73.6938 35.4129 73.9589 35.3372 74.1779 35.1858C74.397 35.0343 74.5633 34.8166 74.6769 34.5326C74.7905 34.2486 74.8473 33.9079 74.8473 33.5103C74.8473 33.1182 74.7905 32.7747 74.6769 32.4799C74.566 32.1851 74.4011 31.9566 74.182 31.7943C73.9656 31.6293 73.6992 31.5468 73.3828 31.5468C73.0556 31.5468 72.7824 31.632 72.5633 31.8024C72.3443 31.9728 72.1793 32.2067 72.0684 32.5042C71.9575 32.799 71.9021 33.1344 71.9021 33.5103C71.9021 33.8916 71.9575 34.2257 72.0684 34.5123C72.182 34.7963 72.3483 35.0181 72.5674 35.1776C72.7892 35.3345 73.061 35.4129 73.3828 35.4129ZM80.5592 36.776C79.9345 36.776 79.3949 36.6462 78.9406 36.3866C78.4889 36.1242 78.1414 35.7537 77.898 35.275C77.6546 34.7936 77.5329 34.227 77.5329 33.5752C77.5329 32.9343 77.6546 32.3717 77.898 31.8876C78.1441 31.4008 78.4876 31.0222 78.9284 30.7517C79.3692 30.4786 79.8871 30.342 80.4821 30.342C80.8662 30.342 81.2286 30.4042 81.5693 30.5286C81.9128 30.6503 82.2157 30.8396 82.4781 31.0965C82.7431 31.3535 82.9513 31.6807 83.1028 32.0783C83.2543 32.4731 83.33 32.9437 83.33 33.49V33.9403H78.2225V32.9505H81.9223C81.9196 32.6692 81.8587 32.419 81.7397 32.2C81.6207 31.9782 81.4544 31.8038 81.2407 31.6767C81.0298 31.5495 80.7837 31.486 80.5024 31.486C80.2022 31.486 79.9385 31.559 79.7114 31.7051C79.4842 31.8484 79.307 32.0377 79.1799 32.273C79.0555 32.5056 78.992 32.7612 78.9892 33.0397V33.9038C78.9892 34.2662 79.0555 34.5772 79.188 34.8369C79.3206 35.0938 79.5058 35.2912 79.7438 35.4292C79.9818 35.5644 80.2604 35.632 80.5795 35.632C80.7932 35.632 80.9865 35.6022 81.1596 35.5427C81.3327 35.4805 81.4828 35.3899 81.6099 35.2709C81.737 35.1519 81.833 35.0045 81.8979 34.8288L83.2691 34.9829C83.1826 35.3453 83.0176 35.6617 82.7742 35.9322C82.5335 36.1999 82.2252 36.4082 81.8493 36.5569C81.4733 36.703 81.0433 36.776 80.5592 36.776ZM84.5724 36.6543V30.4231H85.9963V31.4616H86.0612C86.1748 31.102 86.3695 30.8247 86.6454 30.63C86.9239 30.4326 87.2417 30.3339 87.5987 30.3339C87.6798 30.3339 87.7704 30.3379 87.8705 30.346C87.9733 30.3515 88.0585 30.3609 88.1261 30.3744V31.7253C88.0639 31.7037 87.9652 31.6848 87.8299 31.6685C87.6974 31.6496 87.5689 31.6401 87.4445 31.6401C87.1768 31.6401 86.9361 31.6983 86.7224 31.8146C86.5115 31.9282 86.3452 32.0864 86.2235 32.2892C86.1018 32.4921 86.0409 32.726 86.0409 32.991V36.6543H84.5724Z" fill="#D1D1D1"/>
</svg>
